<?xml version="1.0" encoding="iso-8859-1"?>
<!-- Generator: Adobe Illustrator 16.0.0, SVG Export Plug-In . SVG Version: 6.00 Build 0)  -->
<!DOCTYPE svg PUBLIC "-//W3C//DTD SVG 1.1//EN" "http://www.w3.org/Graphics/SVG/1.1/DTD/svg11.dtd">
<svg version="1.1" id="Capa_1" xmlns="http://www.w3.org/2000/svg" xmlns:xlink="http://www.w3.org/1999/xlink" x="0px" y="0px"
	 width="439.721px" height="439.721px" viewBox="0 0 439.721 439.721" style="enable-background:new 0 0 439.721 439.721;"
	 xml:space="preserve">
<g>
	<path fill="#404040" d="M219.853,181.956c-8.382,0-15.164-6.753-15.164-15.161V15.161C204.689,6.814,211.47,0,219.853,0
		c8.382,0,15.163,6.814,15.163,15.161v151.633C235.016,175.202,228.234,181.956,219.853,181.956z M280.52,55.144v32.28
		c62.017,24.344,106.144,84.64,106.144,155.183c0,91.988-74.869,166.792-166.811,166.792c-91.97,0-166.795-74.804-166.795-166.792
		c0-70.543,44.116-130.839,106.144-155.183v-32.28C80.113,80.792,22.736,155.125,22.736,242.606
		c0,108.691,88.429,197.114,197.117,197.114c108.7,0,197.133-88.427,197.133-197.114C416.985,155.125,359.594,80.792,280.52,55.144z
		"/>
</g>
<g>
</g>
<g>
</g>
<g>
</g>
<g>
</g>
<g>
</g>
<g>
</g>
<g>
</g>
<g>
</g>
<g>
</g>
<g>
</g>
<g>
</g>
<g>
</g>
<g>
</g>
<g>
</g>
<g>
</g>
</svg>
