<svg width="64" height="64" xmlns="http://www.w3.org/2000/svg" xmlns:xlink="http://www.w3.org/1999/xlink">
  <defs/>
  <g>
    <path stroke="none" fill="#FFFFFF" d="M43.85 44 Q42 44 42 45.8 L42 48.2 Q42 50 43.85 50 L46.2 50 Q48 50 48 48.2 L48 45.8 Q48 44 46.2 44 L43.85 44 M43.85 35 Q42 35 42 36.8 L42 39.2 Q42 41 43.85 41 L46.2 41 Q48 41 48 39.2 L48 36.8 Q48 35 46.2 35 L43.85 35 M16 28 L48.5 28 Q55.8 28.25 56 35.65 L56 48 55.9 49.95 Q54.95 56 48 56 L16 56 Q9.05 56 8.15 49.95 8 49.05 8 48 L8 35.65 Q8.2 28 16 28 M25.85 44 Q24 44 24 45.8 L24 48.2 Q24 50 25.85 50 L37.2 50 Q39 50 39 48.2 L39 45.8 Q39 44 37.2 44 L25.85 44 M25.85 35 Q24 35 24 36.8 L24 39.2 Q24 41 25.85 41 L28.2 41 Q30 41 30 39.2 L30 36.8 Q30 35 28.2 35 L25.85 35 M34.85 35 Q33 35 33 36.8 L33 39.2 Q33 41 34.85 41 L37.2 41 Q39 41 39 39.2 L39 36.8 Q39 35 37.2 35 L34.85 35 M16.85 44 Q15 44 15 45.8 L15 48.2 Q15 50 16.85 50 L19.2 50 Q21 50 21 48.2 L21 45.8 Q21 44 19.2 44 L16.85 44 M16.85 35 Q15 35 15 36.8 L15 39.2 Q15 41 16.85 41 L19.2 41 Q21 41 21 39.2 L21 36.8 Q21 35 19.2 35 L16.85 35 M14 16.95 Q15.05 18 16.5 18 17.95 18 19 16.95 19.65 16.2 20.05 14.2 20.35 12.7 20.6 12.1 21 10.85 21.9 9.95 23.85 8 26.5 8 29.15 8 31.1 9.95 33 11.85 33 14.5 L33 20 35.95 20 Q37.2 20 38.1 20.85 39 21.75 39 23 L39 25 25 25 25 23 Q25 21.75 25.85 20.85 26.75 20 28.05 20 L30 20 30 14.5 Q30 13.05 29 12.05 27.95 11 26.5 11 25.05 11 24 12.05 23.6 12.45 23.45 13.05 L23.4 13.1 23 14.8 Q22.35 17.95 21.1 19.05 19.15 21 16.5 21 13.85 21 11.9 19.05 10 17.15 10 14.5 10 13.9 10.45 13.45 10.9 13 11.5 13 12.1 13 12.55 13.45 13 13.9 13 14.5 13 15.95 14 16.95"/>
  </g>
</svg>