<?xml version="1.0" encoding="UTF-8" standalone="no"?>
<svg
   width="64"
   height="64"
   version="1.1"
   id="svg594"
   sodipodi:docname="keyboard_3_num.svg"
   inkscape:version="1.2.2 (b0a8486541, 2022-12-01)"
   xmlns:inkscape="http://www.inkscape.org/namespaces/inkscape"
   xmlns:sodipodi="http://sodipodi.sourceforge.net/DTD/sodipodi-0.dtd"
   xmlns="http://www.w3.org/2000/svg"
   xmlns:svg="http://www.w3.org/2000/svg">
  <sodipodi:namedview
     id="namedview596"
     pagecolor="#505050"
     bordercolor="#eeeeee"
     borderopacity="1"
     inkscape:showpageshadow="0"
     inkscape:pageopacity="0"
     inkscape:pagecheckerboard="0"
     inkscape:deskcolor="#505050"
     showgrid="false"
     inkscape:zoom="15.65625"
     inkscape:cx="32"
     inkscape:cy="32"
     inkscape:window-width="2548"
     inkscape:window-height="1359"
     inkscape:window-x="1920"
     inkscape:window-y="78"
     inkscape:window-maximized="1"
     inkscape:current-layer="g592" />
  <defs
     id="defs588" />
  <g
     id="g592">
    <path
       stroke="none"
       fill="#ffffff"
       d="m 16,8 h 32 c 5.333333,0 8,2.666667 8,8 v 32 c 0,5.333333 -2.666667,8 -8,8 H 16 C 10.666667,56 8,53.333333 8,48 V 16 C 8,10.666667 10.666667,8 16,8 M 38,43.25 C 38.033333,42.016667 37.616667,40.933333 36.75,40 37.616667,39.066667 38.033333,37.983333 38,36.75 38.033333,35.283333 37.383333,34 36.05,32.9 L 36.1,33 c -1.133333,-1 -2.5,-1.5 -4.1,-1.5 -1.6,0 -2.966667,0.483333 -4.1,1.45 -1.233333,1 -1.866667,2.183333 -1.9,3.55 h 4.1 l 0.35,-0.45 V 36 c 0.433333,-0.333333 0.95,-0.5 1.55,-0.5 0.6,0 1.1,0.166667 1.5,0.5 l 0.05,0.05 c 0.266667,0.2 0.416667,0.433333 0.45,0.7 L 33.6,37.5 C 33.2,37.833333 32.716667,38 32.15,38 H 30 v 4 h 2.15 l 0.55,0.05 c 0.333333,0.06667 0.633333,0.216667 0.9,0.45 L 34,43.25 33.55,43.95 33.5,44 c -0.4,0.333333 -0.9,0.5 -1.5,0.5 -0.6,0 -1.116667,-0.166667 -1.55,-0.5 V 43.95 L 30.1,43.5 H 26 c 0.03333,1.366667 0.666667,2.55 1.9,3.55 1.133333,0.966667 2.5,1.45 4.1,1.45 1.6,0 2.966667,-0.5 4.1,-1.5 l -0.05,0.1 C 37.383333,46 38.033333,44.716667 38,43.25 M 21.061876,23.90519 h 1.367266 v -4.686228 l 2.734531,4.686228 h 1.367265 v -7.81038 h -1.367265 v 4.686228 L 22.429142,16.09481 h -1.367266 z m 8.203593,-7.81038 v 6.248304 c 0,1.041384 0.683633,1.562076 2.050898,1.562076 1.367266,0 2.050898,-0.520692 2.050898,-1.562076 V 16.09481 H 32 v 6.248304 c 0,0.208276 -0.227878,0.312415 -0.683633,0.312415 -0.455754,0 -0.683632,-0.104144 -0.683632,-0.312415 V 16.09481 Z m 6.836327,7.81038 h 1.367266 v -4.686228 l 2.050898,3.90519 2.050898,-3.90519 v 4.686228 h 1.367266 V 16.09481 H 41.570858 L 39.51996,20 37.469062,16.09481 h -1.367266 z"
       id="path590"
       sodipodi:nodetypes="csssssssccccccscccccsccccsccccccccscccccscccccccccccccccsssccsssccccccccccccccc" />
  </g>
</svg>
