<?xml version="1.0" encoding="UTF-8" standalone="no"?>
<svg
   width="64"
   height="64"
   version="1.1"
   id="svg66"
   sodipodi:docname="keyboard_ctrl_left.svg"
   inkscape:version="1.2.2 (b0a8486541, 2022-12-01)"
   xmlns:inkscape="http://www.inkscape.org/namespaces/inkscape"
   xmlns:sodipodi="http://sodipodi.sourceforge.net/DTD/sodipodi-0.dtd"
   xmlns="http://www.w3.org/2000/svg"
   xmlns:svg="http://www.w3.org/2000/svg">
  <sodipodi:namedview
     id="namedview68"
     pagecolor="#505050"
     bordercolor="#eeeeee"
     borderopacity="1"
     inkscape:showpageshadow="0"
     inkscape:pageopacity="0"
     inkscape:pagecheckerboard="0"
     inkscape:deskcolor="#505050"
     showgrid="false"
     inkscape:zoom="15.65625"
     inkscape:cx="37.493014"
     inkscape:cy="28.03992"
     inkscape:window-width="2548"
     inkscape:window-height="1359"
     inkscape:window-x="1920"
     inkscape:window-y="78"
     inkscape:window-maximized="1"
     inkscape:current-layer="g64" />
  <defs
     id="defs60" />
  <g
     id="g64">
    <g
       id="g355">
      <path
         stroke="none"
         fill="#ffffff"
         d="m 41.652894,32.1 c 0.6,-0.566667 0.9,-1.266667 0.9,-2.1 0,-0.833333 -0.3,-1.55 -0.9,-2.15 -0.566667,-0.566667 -1.25,-0.85 -2.05,-0.85 h -2.05 c -0.266667,0 -0.5,0.1 -0.7,0.3 -0.2,0.2 -0.3,0.433333 -0.3,0.7 v 8 c 0,0.266667 0.1,0.5 0.3,0.7 l 0.7,0.3 c 0.266667,0 0.5,-0.1 0.7,-0.3 l 0.3,-0.7 v -3 h 0.4 l 1.7,3.45 c 0.133333,0.233333 0.333333,0.4 0.6,0.5 l 0.75,-0.05 0.5,-0.55 -0.05,-0.8 -1.45,-2.9 0.65,-0.5 V 32.1 m -2,-1.1 h -1.1 v -2 h 1.05 c 0.266667,0 0.483333,0.08333 0.65,0.25 l 0.3,0.75 -0.25,0.7 h -0.05 l -0.25,0.2 -0.35,0.1 m 3.9,-3 v 8 c 0,0.266667 0.1,0.5 0.3,0.7 l 0.7,0.3 h 4 l 0.7,-0.3 0.3,-0.7 -0.3,-0.7 c -0.2,-0.2 -0.433333,-0.3 -0.7,-0.3 h -3 v -7 l -0.3,-0.7 c -0.2,-0.2 -0.433333,-0.3 -0.7,-0.3 -0.266667,0 -0.5,0.1 -0.7,0.3 -0.2,0.2 -0.3,0.433333 -0.3,0.7 M 56,22 v 20 c 0,3.266667 -1,5.533333 -3,6.8 -1.266667,0.8 -2.933333,1.2 -5,1.2 H 16 C 13.933333,50 12.266667,49.6 11,48.8 9,47.533333 8,45.266667 8,42 V 22 c 0,-5.333333 2.666667,-8 8,-8 h 32 c 5.333333,0 8,2.666667 8,8 M 27.652894,36.25 c 0.6,-0.6 0.9,-1.266667 0.9,-2 l -0.3,-0.7 c -0.2,-0.2 -0.433333,-0.3 -0.7,-0.3 -0.266667,0 -0.5,0.1 -0.7,0.3 -0.2,0.2 -0.3,0.433333 -0.3,0.7 l -0.25,0.55 v -0.05 l -0.75,0.25 -0.8,-0.25 -0.2,-0.5 V 29.8 l 0.25,-0.6 -0.05,0.1 c 0.233333,-0.2 0.5,-0.3 0.8,-0.3 0.3,0 0.55,0.1 0.75,0.3 v -0.05 l 0.25,0.55 c 0,0.266667 0.1,0.5 0.3,0.7 0.2,0.2 0.433333,0.3 0.7,0.3 l 0.7,-0.3 0.3,-0.7 c 0,-0.766667 -0.3,-1.433333 -0.9,-2 l -0.05,-0.05 c -0.6,-0.5 -1.283333,-0.75 -2.05,-0.75 -0.833333,0 -1.533333,0.25 -2.1,0.75 l -0.05,0.05 c -0.566667,0.566667 -0.85,1.233333 -0.85,2 v 4.45 c 0,0.733333 0.283333,1.383333 0.85,1.95 l 0.05,0.1 c 0.566667,0.466667 1.266667,0.7 2.1,0.7 0.766667,0 1.45,-0.233333 2.05,-0.7 l 0.05,-0.05 m 2.9,-7.25 h 1 v 7 c 0,0.266667 0.1,0.5 0.3,0.7 0.2,0.2 0.433333,0.3 0.7,0.3 l 0.7,-0.3 0.3,-0.7 v -7 h 1 l 0.7,-0.3 0.3,-0.7 -0.3,-0.7 c -0.2,-0.2 -0.433333,-0.3 -0.7,-0.3 h -4 c -0.266667,0 -0.5,0.1 -0.7,0.3 -0.2,0.2 -0.3,0.433333 -0.3,0.7 l 0.3,0.7 0.7,0.3 M 16.393213,27.968064 v 8 c 0,0.266667 0.1,0.5 0.3,0.7 l 0.7,0.3 h 4 l 0.7,-0.3 0.3,-0.7 -0.3,-0.7 c -0.2,-0.2 -0.433333,-0.3 -0.7,-0.3 h -3 v -7 l -0.3,-0.7 c -0.2,-0.2 -0.433333,-0.3 -0.7,-0.3 -0.266667,0 -0.5,0.1 -0.7,0.3 -0.2,0.2 -0.3,0.433333 -0.3,0.7"
         id="path62"
         sodipodi:nodetypes="cssssssscccccccccccccccccscccccccsccccccscccssccscsscssssccccsscccccccccscccscccccscsssccsccccssccccccccsssccccsccccccscccssc"
         inkscape:label="path62" />
    </g>
  </g>
</svg>
