<?xml version="1.0" encoding="UTF-8" standalone="no"?>
<svg
   width="64"
   height="64"
   version="1.1"
   id="svg533"
   sodipodi:docname="keyboard_2_num.svg"
   inkscape:version="1.2.2 (b0a8486541, 2022-12-01)"
   xmlns:inkscape="http://www.inkscape.org/namespaces/inkscape"
   xmlns:sodipodi="http://sodipodi.sourceforge.net/DTD/sodipodi-0.dtd"
   xmlns="http://www.w3.org/2000/svg"
   xmlns:svg="http://www.w3.org/2000/svg">
  <sodipodi:namedview
     id="namedview535"
     pagecolor="#505050"
     bordercolor="#eeeeee"
     borderopacity="1"
     inkscape:showpageshadow="0"
     inkscape:pageopacity="0"
     inkscape:pagecheckerboard="0"
     inkscape:deskcolor="#505050"
     showgrid="false"
     inkscape:zoom="15.65625"
     inkscape:cx="32"
     inkscape:cy="32"
     inkscape:window-width="2548"
     inkscape:window-height="1359"
     inkscape:window-x="1920"
     inkscape:window-y="78"
     inkscape:window-maximized="1"
     inkscape:current-layer="g531" />
  <defs
     id="defs527" />
  <g
     id="g531">
    <path
       stroke="none"
       fill="#ffffff"
       d="m 16,8 h 32 c 5.333333,0 8,2.666667 8,8 v 32 c 0,5.333333 -2.666667,8 -8,8 H 16 C 10.666667,56 8,53.333333 8,48 V 16 c 0,-5.333333 2.666667,-8 8,-8 m 17.5,27.9 c 0.5,0.5 0.333333,1.183333 -0.5,2.05 l -7,6.55 v 4 h 4.85 0.1 7.05 v -4 h -6 l 4.45,-4.45 c 1.466667,-1.466667 1.783333,-3.316667 0.95,-5.55 l -1,-1.35 -0.05,-0.05 C 35.283333,32.033333 34,31.5 32.5,31.5 h -1.65 c -1.3,0.03333 -2.416667,0.5 -3.35,1.4 L 27.4,33 c -0.7,0.733333 -1.133333,1.566667 -1.3,2.5 l -0.1,1 h 4 c 0,-0.266667 0.1,-0.5 0.3,-0.7 0.166667,-0.166667 0.35,-0.266667 0.55,-0.3 h 0.1 1.55 c 0.4,0 0.733333,0.133333 1,0.4 M 21.061876,23.90519 h 1.367266 v -4.686228 l 2.734531,4.686228 h 1.367265 v -7.81038 h -1.367265 v 4.686228 L 22.429142,16.09481 h -1.367266 z m 8.203593,-7.81038 v 6.248304 c 0,1.041384 0.683633,1.562076 2.050898,1.562076 1.367266,0 2.050898,-0.520692 2.050898,-1.562076 V 16.09481 H 32 v 6.248304 c 0,0.208276 -0.227878,0.312415 -0.683633,0.312415 -0.455754,0 -0.683632,-0.104144 -0.683632,-0.312415 V 16.09481 Z m 6.836327,7.81038 h 1.367266 v -4.686228 l 2.050898,3.90519 2.050898,-3.90519 v 4.686228 h 1.367266 V 16.09481 H 41.570858 L 39.51996,20 37.469062,16.09481 h -1.367266 z"
       id="path529"
       sodipodi:nodetypes="csssssssccccccccccsccssccccccsccscccccccccccccsssccsssccccccccccccccc" />
  </g>
</svg>
