<?xml version="1.0" encoding="UTF-8" standalone="no"?>
<svg
   width="64"
   height="64"
   version="1.1"
   id="svg914"
   sodipodi:docname="keyboard_8_num.svg"
   inkscape:version="1.2.2 (b0a8486541, 2022-12-01)"
   xmlns:inkscape="http://www.inkscape.org/namespaces/inkscape"
   xmlns:sodipodi="http://sodipodi.sourceforge.net/DTD/sodipodi-0.dtd"
   xmlns="http://www.w3.org/2000/svg"
   xmlns:svg="http://www.w3.org/2000/svg">
  <sodipodi:namedview
     id="namedview916"
     pagecolor="#505050"
     bordercolor="#eeeeee"
     borderopacity="1"
     inkscape:showpageshadow="0"
     inkscape:pageopacity="0"
     inkscape:pagecheckerboard="0"
     inkscape:deskcolor="#505050"
     showgrid="false"
     inkscape:zoom="15.65625"
     inkscape:cx="32"
     inkscape:cy="32"
     inkscape:window-width="2548"
     inkscape:window-height="1359"
     inkscape:window-x="1920"
     inkscape:window-y="78"
     inkscape:window-maximized="1"
     inkscape:current-layer="g912" />
  <defs
     id="defs908" />
  <g
     id="g912">
    <path
       stroke="none"
       fill="#ffffff"
       d="m 16,8 h 32 c 5.333333,0 8,2.666667 8,8 v 32 c 0,5.333333 -2.666667,8 -8,8 H 16 C 10.666667,56 8,53.333333 8,48 V 16 c 0,-5.333333 2.666667,-8 8,-8 m 16.5,40.5 c 1.5,0 2.783333,-0.533333 3.85,-1.6 L 36.4,46.85 C 37.333333,45.916667 37.866667,44.8 38,43.5 V 43 C 38,41.733333 37.633333,40.633333 36.9,39.7 37.633333,38.8 38,37.733333 38,36.5 38,35.133333 37.533333,33.966667 36.6,33 l -0.1,-0.1 c -0.966667,-0.933333 -2.116667,-1.4 -3.45,-1.4 h -3.1 l -1.3,0.2 c -0.8,0.2 -1.516667,0.6 -2.15,1.2 L 26.4,33 c -0.933333,0.966667 -1.4,2.133333 -1.4,3.5 0,1.233333 0.366667,2.3 1.1,3.2 C 25.366667,40.633333 25,41.733333 25,43 v 0.5 c 0.133333,1.3 0.666667,2.416667 1.6,3.35 l 0.05,0.05 c 1.066667,1.066667 2.35,1.6 3.85,1.6 h 2 M 30,37.5 29.3,37.2 C 29.1,37 29,36.766667 29,36.5 c 0,-0.266667 0.1,-0.5 0.3,-0.7 0.2,-0.2 0.416667,-0.3 0.65,-0.3 h 3.1 c 0.233333,0 0.45,0.1 0.65,0.3 l 0.3,0.7 -0.3,0.7 -0.7,0.3 h -3 m 3.5,6.6 c -0.266667,0.266667 -0.6,0.4 -1,0.4 h -2 c -0.4,0 -0.733333,-0.133333 -1,-0.4 L 29.4,44 C 29.133333,43.733333 29,43.4 29,43 c 0,-0.4 0.15,-0.75 0.45,-1.05 0.3,-0.3 0.65,-0.45 1.05,-0.45 h 2.05 c 0.366667,0 0.7,0.15 1,0.45 0.3,0.3 0.45,0.65 0.45,1.05 0,0.4 -0.133333,0.733333 -0.4,1 l -0.1,0.1 M 21.061876,23.90519 h 1.367266 v -4.686228 l 2.734531,4.686228 h 1.367265 v -7.81038 h -1.367265 v 4.686228 L 22.429142,16.09481 h -1.367266 z m 8.203593,-7.81038 v 6.248304 c 0,1.041384 0.683633,1.562076 2.050898,1.562076 1.367266,0 2.050898,-0.520692 2.050898,-1.562076 V 16.09481 H 32 v 6.248304 c 0,0.208276 -0.227878,0.312415 -0.683633,0.312415 -0.455754,0 -0.683632,-0.104144 -0.683632,-0.312415 V 16.09481 Z m 6.836327,7.81038 h 1.367266 v -4.686228 l 2.050898,3.90519 2.050898,-3.90519 v 4.686228 h 1.367266 V 16.09481 H 41.570858 L 39.51996,20 37.469062,16.09481 h -1.367266 z"
       id="path910"
       sodipodi:nodetypes="csssssssccsscscsccsccccscscssscccssssccccccssssssssssscccccccccccccsssccsssccccccccccccccc" />
  </g>
</svg>
