<svg width="64" height="64" xmlns="http://www.w3.org/2000/svg" xmlns:xlink="http://www.w3.org/1999/xlink">
  <defs/>
  <g>
    <path stroke="none" fill="#FFFFFF" d="M43.85 33 L46.2 33 Q48 33 48 34.8 L48 37.2 Q48 39 46.2 39 L43.85 39 Q42 39 42 37.2 L42 34.8 Q42 33 43.85 33 M43.85 42 L46.2 42 Q48 42 48 43.8 L48 46.2 Q48 48 46.2 48 L43.85 48 Q42 48 42 46.2 L42 43.8 Q42 42 43.85 42 M16 25 L48 25 Q56 25 56 33 L56 48 Q56 56 48 56 L16 56 Q8 56 8 48 L8 33 Q8 25 16 25 M14 16.95 Q15.05 18 16.5 18 17.95 18 19 16.95 19.65 16.2 20.05 14.2 20.35 12.7 20.6 12.1 21 10.85 21.9 9.95 23.85 8 26.5 8 29.15 8 31.1 9.95 33 11.85 33 14.5 L33 21.5 32.55 22.55 31.5 23 Q30.9 23 30.45 22.55 30 22.1 30 21.5 L30 14.5 Q30 13.05 29 12.05 27.95 11 26.5 11 25.05 11 24 12.05 23.6 12.45 23.45 13.05 L23.4 13.1 23 14.8 Q22.35 17.95 21.1 19.05 19.15 21 16.5 21 13.85 21 11.9 19.05 10 17.15 10 14.5 10 13.9 10.45 13.45 10.9 13 11.5 13 12.1 13 12.55 13.45 13 13.9 13 14.5 13 15.95 14 16.95 M11 33 L11 48 Q11 53 16 53 L48 53 Q53 53 53 48 L53 33 Q53 28 48 28 L16 28 Q11 28 11 33 M16.85 33 L19.2 33 Q21 33 21 34.8 L21 37.2 Q21 39 19.2 39 L16.85 39 Q15 39 15 37.2 L15 34.8 Q15 33 16.85 33 M16.85 42 L19.2 42 Q21 42 21 43.8 L21 46.2 Q21 48 19.2 48 L16.85 48 Q15 48 15 46.2 L15 43.8 Q15 42 16.85 42 M34.85 33 L37.2 33 Q39 33 39 34.8 L39 37.2 Q39 39 37.2 39 L34.85 39 Q33 39 33 37.2 L33 34.8 Q33 33 34.85 33 M25.85 33 L28.2 33 Q30 33 30 34.8 L30 37.2 Q30 39 28.2 39 L25.85 39 Q24 39 24 37.2 L24 34.8 Q24 33 25.85 33 M25.85 42 L37.2 42 Q39 42 39 43.8 L39 46.2 Q39 48 37.2 48 L25.85 48 Q24 48 24 46.2 L24 43.8 Q24 42 25.85 42"/>
    <path stroke="none" fill="#FFFFFF" d="M28.05 20 L35.95 20 Q37.2 20 38.1 20.85 39 21.75 39 23 L39 25 Q39 26.25 38.1 27.1 37.2 28 35.95 28 L28.05 28 Q26.75 28 25.85 27.1 25 26.25 25 25 L25 23 Q25 21.75 25.85 20.85 26.75 20 28.05 20"/>
  </g>
</svg>