<?xml version="1.0" encoding="UTF-8" standalone="no"?>
<svg
   width="64"
   height="64"
   version="1.1"
   id="svg975"
   sodipodi:docname="keyboard_9_num.svg"
   inkscape:version="1.2.2 (b0a8486541, 2022-12-01)"
   xmlns:inkscape="http://www.inkscape.org/namespaces/inkscape"
   xmlns:sodipodi="http://sodipodi.sourceforge.net/DTD/sodipodi-0.dtd"
   xmlns="http://www.w3.org/2000/svg"
   xmlns:svg="http://www.w3.org/2000/svg">
  <sodipodi:namedview
     id="namedview977"
     pagecolor="#505050"
     bordercolor="#eeeeee"
     borderopacity="1"
     inkscape:showpageshadow="0"
     inkscape:pageopacity="0"
     inkscape:pagecheckerboard="0"
     inkscape:deskcolor="#505050"
     showgrid="false"
     inkscape:zoom="15.65625"
     inkscape:cx="32"
     inkscape:cy="32"
     inkscape:window-width="2548"
     inkscape:window-height="1359"
     inkscape:window-x="1920"
     inkscape:window-y="78"
     inkscape:window-maximized="1"
     inkscape:current-layer="g973" />
  <defs
     id="defs969" />
  <g
     id="g973">
    <path
       stroke="none"
       fill="#ffffff"
       d="m 16,8 h 32 c 5.333333,0 8,2.666667 8,8 v 32 c 0,5.333333 -2.666667,8 -8,8 H 16 C 10.666667,56 8,53.333333 8,48 V 16 c 0,-5.333333 2.666667,-8 8,-8 m 10.75,33.75 c 1.166667,1.166667 2.583333,1.75 4.25,1.75 l -2,5 h 5 l 3.85,-9.65 0.05,-0.35 0.1,-1 C 38,35.833333 37.416667,34.416667 36.25,33.25 35.083333,32.083333 33.666667,31.5 32,31.5 h -1 c -1.633333,0 -3.033333,0.583333 -4.2,1.75 L 26.75,33.3 C 25.583333,34.466667 25,35.866667 25,37.5 c 0,1.666667 0.583333,3.083333 1.75,4.25 M 31,39.5 c -0.533333,0 -1,-0.2 -1.4,-0.6 -0.4,-0.4 -0.6,-0.866667 -0.6,-1.4 0,-0.533333 0.183333,-0.983333 0.55,-1.35 l 0.1,-0.1 C 30.016667,35.683333 30.466667,35.5 31,35.5 h 1 c 0.533333,0 1,0.2 1.4,0.6 0.4,0.4 0.6,0.866667 0.6,1.4 l -0.25,1 -0.3,0.4 L 33.4,38.95 32.65,39.4 32,39.5 H 31 M 21.061876,23.90519 h 1.367266 v -4.686228 l 2.734531,4.686228 h 1.367265 v -7.81038 h -1.367265 v 4.686228 L 22.429142,16.09481 h -1.367266 z m 8.203593,-7.81038 v 6.248304 c 0,1.041384 0.683633,1.562076 2.050898,1.562076 1.367266,0 2.050898,-0.520692 2.050898,-1.562076 V 16.09481 H 32 v 6.248304 c 0,0.208276 -0.227878,0.312415 -0.683633,0.312415 -0.455754,0 -0.683632,-0.104144 -0.683632,-0.312415 V 16.09481 Z m 6.836327,7.81038 h 1.367266 v -4.686228 l 2.050898,3.90519 2.050898,-3.90519 v 4.686228 h 1.367266 V 16.09481 H 41.570858 L 39.51996,20 37.469062,16.09481 h -1.367266 z"
       id="path971"
       sodipodi:nodetypes="csssssssccccccccssssssccssssssscccccccccccccccccccsssccsssccccccccccccccc" />
  </g>
</svg>
