<?xml version="1.0" encoding="UTF-8" standalone="no"?>
<!-- Created with Inkscape (http://www.inkscape.org/) -->

<svg
   width="512"
   height="512"
   viewBox="0 0 135.46666 135.46667"
   version="1.1"
   id="svg1"
   sodipodi:docname="icon.svg"
   xml:space="preserve"
   inkscape:version="1.4.2 (ebf0e940d0, 2025-05-08)"
   xmlns:inkscape="http://www.inkscape.org/namespaces/inkscape"
   xmlns:sodipodi="http://sodipodi.sourceforge.net/DTD/sodipodi-0.dtd"
   xmlns:xlink="http://www.w3.org/1999/xlink"
   xmlns="http://www.w3.org/2000/svg"
   xmlns:svg="http://www.w3.org/2000/svg"><sodipodi:namedview
     id="namedview1"
     pagecolor="#505050"
     bordercolor="#eeeeee"
     borderopacity="1"
     inkscape:showpageshadow="0"
     inkscape:pageopacity="0"
     inkscape:pagecheckerboard="0"
     inkscape:deskcolor="#d1d1d1"
     inkscape:document-units="mm"
     inkscape:zoom="1.0431888"
     inkscape:cx="223.35362"
     inkscape:cy="346.05432"
     inkscape:window-width="2557"
     inkscape:window-height="1379"
     inkscape:window-x="0"
     inkscape:window-y="0"
     inkscape:window-maximized="0"
     inkscape:current-layer="svg1" /><defs
     id="defs1"><linearGradient
       id="linearGradient2"
       inkscape:collect="always"><stop
         style="stop-color:#0080ff;stop-opacity:1;"
         offset="0"
         id="stop2" /><stop
         style="stop-color:#ffffff;stop-opacity:1;"
         offset="1"
         id="stop3" /></linearGradient><linearGradient
       inkscape:collect="always"
       xlink:href="#linearGradient2"
       id="linearGradient3"
       x1="67.73333"
       y1="0"
       x2="67.73333"
       y2="135.46666"
       gradientUnits="userSpaceOnUse" /></defs><rect
     style="fill:url(#linearGradient3);stroke:none;stroke-width:0.262996;paint-order:stroke fill markers"
     id="rect2"
     width="135.46666"
     height="135.46666"
     x="0"
     y="0"
     rx="0.41265142"
     ry="0" /><path
     fill="#777878"
     d="M 101.12547,38.37128 H 34.341194 c -9.557061,0 -17.386942,7.829882 -17.386942,17.386942 v 23.950225 c 0,9.557061 7.829881,17.386942 17.386942,17.386942 h 66.784276 c 9.55707,0 17.38695,-7.829881 17.38695,-17.386942 V 55.758222 c 0,-9.55706 -7.82988,-17.386942 -17.38695,-17.386942 z M 24.093261,53.340171 c 0,-2.533197 1.95747,-4.490667 4.490667,-4.490667 2.533197,0 4.490667,1.95747 4.490667,4.490667 0,2.533197 -1.95747,4.490667 -4.490667,4.490667 -2.533197,0 -4.490667,-1.95747 -4.490667,-4.490667 z M 36.528955,69.57566 c 0,0.460581 -0.345436,0.806017 -0.806018,0.806017 0,0 -2.18776,0 -2.418051,0 0,0.345436 0,2.418052 0,2.418052 0,0.460581 -0.345436,0.806017 -0.806017,0.806017 h -2.763488 c -0.460581,0 -0.806017,-0.345436 -0.806017,-0.806017 0,0 0,-2.187761 0,-2.418052 -0.345436,0 -2.418052,0 -2.418052,0 -0.460581,0 -0.806017,-0.345436 -0.806017,-0.806017 0,0 0,-2.763488 0,-2.763488 0,-0.460581 0.345436,-0.806017 0.806017,-0.806017 0,0 2.187761,0 2.418052,0 0,-0.345436 0,-2.418051 0,-2.418051 0,-0.460582 0.345436,-0.806018 0.806017,-0.806018 h 2.763488 c 0.460581,0 0.806017,0.345436 0.806017,0.806018 0,0 0,2.187761 0,2.418051 0.345436,0 2.418051,0 2.418051,0 0.460582,0 0.806018,0.345436 0.806018,0.806017 z m 31.204379,24.180515 c -1.381744,0 -2.533197,-1.151453 -2.533197,-2.533197 0,-1.381743 1.151453,-2.533196 2.533197,-2.533196 1.381744,0 2.533197,1.151453 2.533197,2.533196 0,1.381744 -1.151453,2.533197 -2.533197,2.533197 z M 95.713645,85.350568 H 39.753023 V 50.116102 h 55.960622 z m 4.836105,-14.853746 c -1.151455,0 -2.187763,-0.921162 -2.187763,-2.187761 0,-1.151453 0.921163,-2.187761 2.187763,-2.187761 1.15145,0 2.18776,0.921163 2.18776,2.187761 0,1.266599 -1.03631,2.187761 -2.18776,2.187761 z m 2.07261,-6.332992 c 0,-1.151453 0.92117,-2.187761 2.18776,-2.187761 1.15146,0 2.18777,0.921163 2.18777,2.187761 0,1.151453 -0.92117,2.187761 -2.18777,2.187761 -1.26659,0 -2.18776,-0.921162 -2.18776,-2.187761 z m 2.07262,10.593369 c -1.15145,0 -2.18776,-0.921163 -2.18776,-2.187761 0,-1.151453 0.92116,-2.187761 2.18776,-2.187761 1.15145,0 2.18776,0.921163 2.18776,2.187761 0,1.266598 -0.92116,2.187761 -2.18776,2.187761 z m 4.26038,-4.260377 c -1.15146,0 -2.18777,-0.921162 -2.18777,-2.187761 0,-1.151453 0.92117,-2.187761 2.18777,-2.187761 1.15145,0 2.18776,0.921163 2.18776,2.187761 0,1.266599 -1.03631,2.187761 -2.18776,2.187761 z m -1.61204,-12.665984 c -2.5332,0 -4.49067,-1.95747 -4.49067,-4.490667 0,-2.533197 1.95747,-4.490667 4.49067,-4.490667 2.5332,0 4.49067,1.95747 4.49067,4.490667 0.11514,2.533197 -1.95747,4.490667 -4.49067,4.490667 z"
     id="path1"
     style="fill:#ffffff;fill-opacity:1;stroke-width:1.15145" /></svg>
