<?xml version="1.0" encoding="utf-8"?>
<!-- Generator: Adobe Illustrator 15.1.0, SVG Export Plug-In . SVG Version: 6.00 Build 0)  -->
<!DOCTYPE svg PUBLIC "-//W3C//DTD SVG 1.1//EN" "http://www.w3.org/Graphics/SVG/1.1/DTD/svg11.dtd">
<svg version="1.1" id="Layer_1" xmlns="http://www.w3.org/2000/svg" xmlns:xlink="http://www.w3.org/1999/xlink" x="0px" y="0px"
	 width="72px" height="72px" viewBox="0 0 72 72" enable-background="new 0 0 72 72" xml:space="preserve">
<path fill="#0A0B0B" d="M19.21,28.22c-12.744,0-12.976,16.22,0,16.22c7.647,0,11.818-7.491,14.367-4.865
	c2.395,2.472-1.391,15.911-1.699,18.073c-0.464,2.936,2.008,5.253,4.712,5.253c2.857,0,4.865-2.317,4.325-5.253
	c-0.387-2.162-3.785-15.524-1.313-18.073c2.395-2.472,7.029,4.942,15.217,4.865c11.662-0.076,11.662-16.22,0-16.22
	c-8.033,0-12.745,7.415-15.217,4.943c-2.317-2.317,4.943-5.021,4.943-12.899c0-11.432-16.065-11.432-16.065-0.077
	c0,7.956,7.492,10.736,5.098,12.976C30.951,35.635,26.857,28.22,19.21,28.22z"/>
</svg>
