<?xml version="1.0" encoding="UTF-8" standalone="no"?>
<svg
   viewBox="0 0 22 22"
   version="1.1"
   id="svg1"
   sodipodi:docname="Antu_mail-mark-notjunk_yellow copy.svg"
   inkscape:version="1.3.2 (091e20e, 2023-11-25)"
   xmlns:inkscape="http://www.inkscape.org/namespaces/inkscape"
   xmlns:sodipodi="http://sodipodi.sourceforge.net/DTD/sodipodi-0.dtd"
   xmlns="http://www.w3.org/2000/svg"
   xmlns:svg="http://www.w3.org/2000/svg">
  <defs
     id="defs1" />
  <sodipodi:namedview
     id="namedview1"
     pagecolor="#ffffff"
     bordercolor="#000000"
     borderopacity="0.25"
     inkscape:showpageshadow="2"
     inkscape:pageopacity="0.0"
     inkscape:pagecheckerboard="0"
     inkscape:deskcolor="#d1d1d1"
     inkscape:zoom="40.064776"
     inkscape:cx="8.3240202"
     inkscape:cy="9.8964738"
     inkscape:window-width="1528"
     inkscape:window-height="916"
     inkscape:window-x="0"
     inkscape:window-y="44"
     inkscape:window-maximized="0"
     inkscape:current-layer="svg1" />
  <path
     d="m 121.36,2.114 -11.08,-11.08 c -1.52,-1.521 -3.368,-2.281 -5.54,-2.281 -2.173,0 -4.02,0.76 -5.541,2.281 l -53.45,53.53 -23.953,-24.04 c -1.521,-1.521 -3.368,-2.281 -5.54,-2.281 -2.173,0 -4.02,0.76 -5.541,2.281 l -11.08,11.08 c -1.521,1.521 -2.281,3.368 -2.281,5.541 0,2.172 0.76,4.02 2.281,5.54 l 29.493,29.493 11.08,11.08 c 1.52,1.521 3.367,2.281 5.54,2.281 2.172,0 4.02,-0.761 5.54,-2.281 l 11.08,-11.08 58.986,-58.986 c 1.52,-1.521 2.281,-3.368 2.281,-5.541 10e-5,-2.172 -0.761,-4.02 -2.281,-5.54"
     fill="#43be80"
     transform="matrix(0.14464,0,0,0.14464,2.25,5.618)"
     id="path1"
     style="display:inline;fill:#000000" />
  <path
     style="display:inline;fill:#000000;fill-opacity:1;stroke-width:0.0932203"
     d="M 5.2509434,14.758074 C 3.5210614,13.030946 2.0570993,11.500501 1.9976942,11.357085 1.7809892,10.833913 1.9363978,10.551894 3.0573672,9.4341046 4.2106308,8.2841127 4.5033726,8.1346326 5.0427741,8.4203141 5.191706,8.4991925 6.1098434,9.363249 7.0830794,10.34044 l 1.7695203,1.77671 4.0101413,-3.9979473 c 4.292154,-4.2791033 4.27007,-4.261167 4.909382,-3.9874547 0.370928,0.1588079 2.169538,1.972 2.266875,2.2852548 0.182189,0.5863244 0.195193,0.5714757 -5.382069,6.1456082 L 9.3182401,17.898305 H 8.8572117 8.3961834 Z"
     id="path2" />
  <path
     style="display:inline;fill:#000000;fill-opacity:1;stroke-width:0.00999301"
     d="m 12.48688,8.447395 c 1.261705,-1.2631831 2.707443,-2.7119697 3.212753,-3.2195258 0.50531,-0.5075562 0.953423,-0.9507201 0.995808,-0.9848088 0.20102,-0.1616742 0.44149,-0.2459195 0.701654,-0.2458157 0.25286,1.01e-4 0.481709,0.074578 0.671364,0.2184917 0.04589,0.034823 0.442926,0.4245763 0.949861,0.9324425 0.785691,0.7871327 0.876968,0.8818762 0.931813,0.9672006 0.10222,0.1590275 0.151585,0.3034389 0.171368,0.5013197 0.01878,0.1878224 -0.01068,0.3822533 -0.0844,0.5570383 -0.08135,0.1928885 -0.0077,0.1148314 -1.804352,1.9130762 l -1.655514,1.6570093 -0.04317,-0.0032 -0.04317,-0.0032 0.837372,-0.8444098 c 2.085867,-2.1033954 2.615205,-2.6954951 2.738043,-3.06268 0.02393,-0.071528 0.02622,-0.090621 0.02223,-0.1848707 C 20.08254,6.5048359 20.04997,6.4051485 19.971605,6.2880437 19.688679,5.8652281 18.462067,4.6228298 17.949777,4.2401945 17.843118,4.1605295 17.74298,4.1079352 17.607679,4.0605185 c -0.06778,-0.023754 -0.09591,-0.028046 -0.184871,-0.028212 -0.117951,-2.191e-4 -0.163552,0.011679 -0.293958,0.076697 -0.286012,0.1426007 -0.734414,0.5252345 -1.613791,1.3770914 -0.506049,0.4902124 -1.232733,1.2104444 -3.307073,3.2777077 -1.089206,1.0854909 -1.988193,1.9751054 -1.997748,1.9769204 -0.0096,0.0018 1.01493,-1.0302132 2.276635,-2.2933963 z"
     id="path3" />
  <path
     style="display:inline;fill:#000000;fill-opacity:1;stroke-width:0.00856419"
     d="M 2.5034653,12.08622 C 2.2977184,11.880144 2.1201261,11.699975 2.1088159,11.685844 2.0021619,11.552591 1.9186403,11.366997 1.8872063,11.193403 c -0.019006,-0.104959 -0.01439,-0.336257 0.00889,-0.445339 0.037781,-0.17705 0.1161129,-0.335995 0.2356822,-0.478224 0.08075,-0.09605 1.7301346,-1.7391858 1.7906263,-1.7838392 0.1402699,-0.1035435 0.2481839,-0.1542915 0.418823,-0.1969573 0.1028277,-0.025711 0.3325156,-0.031857 0.4514353,-0.012081 0.1612028,0.026808 0.2935953,0.078621 0.4357814,0.1705473 0.052531,0.033963 0.3898662,0.3677884 1.8518886,1.8326252 L 8.86799,12.071233 9.5386239,11.400738 c 0.3688487,-0.368773 0.6735161,-0.667614 0.6770371,-0.664092 0.0035,0.0035 -0.3010339,0.313857 -0.67679,0.689636 L 8.8556747,12.109514 7.5623326,10.818094 C 6.2250407,9.4827886 5.7854114,9.0547849 5.3695548,8.6833015 5.1490012,8.4862816 5.0846569,8.4369666 4.9843614,8.38808 4.4700182,8.137376 4.1531408,8.3200718 2.8946978,9.5928764 2.2711981,10.223492 2.0354222,10.521896 1.9430478,10.797311 c -0.030543,0.09106 -0.037988,0.251694 -0.016224,0.350058 0.025322,0.114445 0.067345,0.219947 0.1093261,0.27447 0.083355,0.108259 0.373334,0.428577 0.6964231,0.769288 0.080403,0.08479 0.1704473,0.180174 0.2000995,0.211968 l 0.053913,0.05781 h -0.054518 -0.054517 z"
     id="path4" />
  <path
     style="display:inline;fill:#000000;fill-opacity:1;stroke-width:0.0085873"
     d="M 6.2766735,15.772722 C 3.9937367,13.487721 3.4481332,12.934205 2.7152178,12.159616 l -0.1259421,-0.133103 -1.025e-4,-0.77071 -1.025e-4,-0.770711 h 2.3170578 2.3170577 l 0.80951,0.815794 c 0.4452305,0.448686 0.8139922,0.815793 0.8194703,0.815793 0.00548,0 0.377052,-0.367107 0.8257198,-0.815793 l 0.8157597,-0.815794 h 3.117203 3.117202 l -3.705412,3.70542 -3.7054118,3.70542 H 8.8575962 8.3979651 Z"
     id="path5" />
  <path
     style="display:inline;fill:#000000;fill-opacity:1;stroke-width:0.0085873"
     d="M 6.2638252,15.759841 C 4.0009843,13.4949 3.493808,12.980843 2.7966145,12.245592 L 2.5890707,12.026719 v -0.770813 -0.770814 h 2.3175102 2.3175102 l 0.8093274,0.815794 c 0.44513,0.448686 0.8135536,0.815793 0.818719,0.815793 0.00517,0 0.3766916,-0.367107 0.8256139,-0.815793 l 0.8162226,-0.815794 h 3.117039 3.117038 l -3.705412,3.70542 -3.7054118,3.70542 H 8.8575814 8.3979358 Z"
     id="path6" />
  <path
     style="display:inline;fill:#000000;fill-opacity:1;stroke-width:0.0085873"
     d="M 6.2637336,15.759841 C 3.9742639,13.468345 3.3533747,12.838457 2.7022445,12.146735 l -0.1131671,-0.120222 -3.3e-6,-0.77071 -3.4e-6,-0.770711 h 2.3178157 2.3178155 l 0.8048441,0.811033 c 0.4426643,0.446068 0.8105325,0.813215 0.8174849,0.815883 0.00854,0.0033 0.278075,-0.260046 0.8301803,-0.811032 l 0.8175398,-0.815884 h 3.11665 3.11665 l -3.705412,3.70542 -3.7054118,3.70542 H 8.8575814 8.3979358 Z"
     id="path7" />
  <path
     style="display:inline;fill:#000000;fill-opacity:1;stroke-width:0.0085873"
     d="m 8.7701336,17.9804 c -0.088769,-0.0055 -0.2428159,-0.03782 -0.3011463,-0.06318 -0.024213,-0.01053 0.025465,-0.01203 0.3973992,-0.01203 0.3858299,0 0.4223224,0.0012 0.3952935,0.01292 -0.1136519,0.0493 -0.3066216,0.07375 -0.4915464,0.06229 z"
     id="path8" />
  <path
     style="display:inline;fill:#000000;fill-opacity:1;stroke-width:0.0085873"
     d="m 12.914366,14.310427 3.571384,-3.567716 h 0.03692 c 0.02031,0 0.03886,0.0031 0.04124,0.007 0.0058,0.0095 -6.9506399,6.961921 -7.0113908,7.007338 -0.058516,0.04374 -0.1872677,0.121842 -0.2001721,0.121419 -0.00515,-1.69e-4 1.5977599,-1.60578 3.5620209,-3.568023 z"
     id="path9" />
  <path
     style="display:inline;fill:#000000;fill-opacity:1;stroke-width:0.0085873"
     d="m 8.8127159,17.90673 c 0.034242,-0.0016 0.090274,-0.0016 0.1245158,0 0.034242,0.0016 0.00623,0.003 -0.062258,0.003 -0.068484,0 -0.0965,-0.0013 -0.062258,-0.003 z"
     id="path10" />
  <path
     style="display:inline;fill:#000000;fill-opacity:1;stroke-width:0.0085873"
     d="M 6.2551463,15.751254 C 3.9528049,13.446885 3.350299,12.835675 2.6979668,12.142687 L 2.5890707,12.027004 v -0.770956 -0.770956 h 2.3175145 2.3175146 l 0.8125837,0.816799 0.8125839,0.816799 0.2554444,-0.249488 C 9.2452062,11.731983 9.615188,11.364424 9.9268936,11.052403 l 0.5667374,-0.567311 h 3.11721 3.11721 l -3.705412,3.70542 -3.7054118,3.70542 H 8.8575823 8.3979374 Z"
     id="path11" />
  <path
     style="display:inline;fill:#000000;fill-opacity:1;stroke-width:0.00390625"
     d="m 8.3303766,17.857204 c -0.041903,-0.0225 -0.1007971,-0.06105 -0.1506891,-0.09866 -0.030232,-0.02279 -0.2887659,-0.278983 -1.1437009,-1.133365 l -1.1046383,-1.103924 0.00112,-0.03946 0.00112,-0.03946 1.2179271,1.216328 c 0.6698599,0.668981 1.2165396,1.2163 1.2148437,1.216264 -0.0017,-3.6e-5 -0.01789,-0.008 -0.035988,-0.01773 z"
     id="path12" />
  <path
     style="display:inline;fill:#000000;fill-opacity:1;stroke-width:0.00390625"
     d="m 7.1657862,16.666992 -1.2338857,-1.231445 -1.3e-4,-0.438477 -1.299e-4,-0.438476 h 3.3261719 3.3261715 v 0.03613 0.03613 l -1.63379,1.633787 -1.6337912,1.633787 H 8.8580373 8.3996719 Z"
     id="path13" />
  <path
     style="display:inline;fill:#000000;fill-opacity:1;stroke-width:0.00390625"
     d="M 7.1650391,16.666707 5.9316406,15.435408 v -0.438407 -0.438407 h 3.3261719 3.3261715 v 0.03613 0.03613 l -1.63379,1.633787 -1.6337912,1.633787 -0.4589827,-2.15e-4 -0.4589826,-2.16e-4 z"
     id="path14" />
  <path
     style="display:inline;fill:#000000;fill-opacity:1;stroke-width:0.00390625"
     d="m 7.1649425,16.666791 -1.2334949,-1.231244 9.65e-5,-0.438477 9.65e-5,-0.438476 h 3.3261719 3.3261715 v 0.03613 0.03613 l -1.63379,1.633787 -1.6337912,1.633787 -0.4589827,-2.01e-4 -0.4589826,-2.02e-4 z"
     id="path15" />
  <path
     style="display:inline;fill:#000000;fill-opacity:1;stroke-width:0.00390625"
     d="m 7.1648916,16.666818 -1.2335458,-1.231271 1.474e-4,-0.438477 1.474e-4,-0.438476 h 3.3261719 3.3261715 v 0.03613 0.03613 l -1.63379,1.633787 -1.6337912,1.633787 -0.4589827,-1.74e-4 -0.4589826,-1.74e-4 z"
     id="path16" />
  <path
     style="display:inline;fill:#000000;fill-opacity:1;stroke-width:0.00390625"
     d="m 9.3990343,17.833737 c 0.017516,-0.0192 0.7412017,-0.745065 1.6081907,-1.613034 l 1.576343,-1.578125 2.08e-4,0.04711 2.08e-4,0.04711 -1.049387,1.046638 c -0.577163,0.57565 -1.257876,1.253733 -1.512695,1.506851 -0.455015,0.451975 -0.4642172,0.460827 -0.5140895,0.494515 -0.050007,0.03378 -0.118895,0.07569 -0.133275,0.08108 -0.00404,0.0015 0.00698,-0.01295 0.024497,-0.03215 z"
     id="path17" />
  <path
     style="display:inline;fill:#000000;fill-opacity:1;stroke-width:0.00432733"
     d="m 4.0938957,13.683251 -1.2200555,-1.220061 0.058854,-0.0013 0.058854,-0.0013 0.072639,0.07573 c 0.515484,0.537406 0.9482245,0.979077 1.7860287,1.822886 l 0.5402884,0.544162 h -0.038277 -0.038277 z"
     id="path18" />
  <path
     style="display:inline;fill:#000000;fill-opacity:1;stroke-width:0.00432733"
     d=""
     id="path19" />
  <path
     style="display:inline;fill:#000000;fill-opacity:1;stroke-width:0.0259649"
     d="m 8.6073618,17.942955 -0.064912,-0.01957 0.077895,-0.0129 c 0.047915,-0.0079 0.016907,-0.01439 -0.080567,-0.01678 L 8.3813162,17.889811 6.0082006,15.506699 C 3.0178784,12.503781 2.1630045,11.609788 2.0132622,11.328954 1.9715642,11.250751 1.9459147,11.153977 1.9395035,11.050665 1.9171664,10.690722 2.1183417,10.406276 3.0622516,9.4631844 4.1382432,8.388126 4.4490671,8.1992301 4.8765321,8.3605983 c 0.2592499,0.097867 0.7014079,0.50449 2.5956641,2.3870607 0.7394648,0.734903 1.3602345,1.3385 1.3794883,1.341326 0.019254,0.0028 1.5477385,-1.498215 3.3966335,-3.3356465 3.885165,-3.8610764 4.358778,-4.3122837 4.807719,-4.5802728 0.338294,-0.2019397 0.580212,-0.1565945 1.015528,0.1903511 0.275278,0.2193951 1.432122,1.3746196 1.688124,1.6857596 0.427223,0.51924 0.419942,0.7162586 -0.04801,1.2991865 -0.498678,0.6211978 -1.189004,1.3265357 -6.702198,6.8479421 l -3.6880123,3.693506 -0.142841,0.0031 c -0.1132515,0.0024 -0.1267053,0.0067 -0.064946,0.02057 l 0.077895,0.0175 -0.087631,0.01838 c -0.1108288,0.02324 -0.4111525,0.01939 -0.4965786,-0.0064 z"
     id="path20" />
  <path
     style="display:inline;fill:#000000;fill-opacity:1;stroke-width:0.0259649"
     d="m 8.6203443,17.950619 c -0.028561,-0.0077 -0.06303,-0.02447 -0.076596,-0.03736 -0.013567,-0.0129 -0.055343,-0.02344 -0.092836,-0.02344 -0.055821,0 -0.4817541,-0.415089 -2.3512643,-2.291402 C 2.7959023,12.282643 2.0645421,11.51168 1.975809,11.251262 1.8266689,10.81356 2.0072269,10.516323 3.0619016,9.4633218 4.1394235,8.3875096 4.4491825,8.1992737 4.8765321,8.3605983 c 0.2617602,0.098814 0.6718546,0.4754662 2.5559184,2.3474857 0.7318854,0.727207 1.3307007,1.312622 1.3307007,1.300921 0,-0.0117 0.023253,-2.29e-4 0.051674,0.02549 0.050344,0.04556 0.055189,0.04354 0.1882454,-0.07836 0.2184642,-0.200152 1.7411654,-1.705055 3.9793754,-3.9328596 2.841989,-2.8287771 3.374758,-3.340184 3.868769,-3.7136438 0.604489,-0.4569784 0.826866,-0.3722869 1.965299,0.7484787 1.128626,1.1111102 1.344444,1.4212266 1.229632,1.7668947 -0.107962,0.3250446 -0.636879,0.9285357 -2.232329,2.5470739 -0.613024,0.6218955 -2.774586,2.7927971 -4.803471,4.8242251 -3.058843,3.062678 -3.7007126,3.693506 -3.7581549,3.693506 -0.038101,0 -0.073931,0.01397 -0.079623,0.03105 -0.010867,0.0326 -0.4527695,0.05642 -0.5522239,0.02976 z"
     id="path21" />
  <path
     style="fill:#000000;fill-opacity:1;stroke-width:0.0259649"
     d="M 8.5368942,17.931444 C 8.4767159,17.911863 8.371558,17.863828 8.3032101,17.824699 8.1599699,17.742696 2.2892441,11.896748 2.1014323,11.649097 1.8601282,11.33091 1.8143447,10.888204 1.9850073,10.523323 2.0599738,10.363043 2.1493729,10.26476 2.9681209,9.4425174 3.4634773,8.9450464 3.9186246,8.5032704 3.9795591,8.4607929 4.1520751,8.3405318 4.3570373,8.2806326 4.595786,8.2807035 c 0.2329819,6.93e-5 0.3971426,0.041511 0.5732409,0.1447114 0.071837,0.042099 0.8313587,0.7850171 1.9072948,1.8656001 l 1.7879209,1.795642 3.9675214,-3.9622388 c 3.573705,-3.5689468 3.981471,-3.9680325 4.108053,-4.0206026 0.218182,-0.090612 0.44231,-0.1192347 0.643448,-0.082173 0.353693,0.06517 0.402932,0.1040354 1.413023,1.115333 0.839265,0.8402661 0.932848,0.9425738 1.012631,1.1070356 0.08436,0.1738873 0.08791,0.1933159 0.08791,0.4808964 0,0.5408526 0.59116,-0.1039317 -5.371294,5.8585214 -4.9504632,4.950464 -5.204949,5.200534 -5.3766684,5.283385 -0.1627521,0.07852 -0.205604,0.08761 -0.4414031,0.0936 -0.1680069,0.0043 -0.3001776,-0.0061 -0.3705673,-0.02897 z"
     id="path22" />
  <path
     style="fill:#000000;stroke-width:0.0371735"
     d="M 8.5966475,17.941793 C 8.4174041,17.905879 8.3399339,17.861762 8.1133924,17.66659 7.9650071,17.538753 6.5457589,16.133596 4.9595078,14.54402 2.6775314,12.25726 2.0566704,11.615077 1.9856307,11.468014 1.912846,11.317338 1.896228,11.22584 1.8978611,10.984759 1.9009795,10.524395 1.943339,10.465022 3.0543899,9.3637096 4.1498817,8.2778203 4.1596188,8.2713198 4.6533689,8.2962532 c 0.1784839,0.00901 0.3481012,0.041533 0.4393956,0.084244 0.09899,0.046311 0.7482859,0.6671677 1.9424209,1.8573418 0.9865499,0.983277 1.813013,1.794221 1.8365847,1.802098 0.023571,0.0079 1.8008789,-1.751812 3.9495729,-3.9104198 2.783223,-2.7960651 3.954822,-3.9493185 4.073996,-4.0102024 0.243589,-0.1244455 0.763599,-0.1234726 1.003684,0.00188 0.104787,0.05471 0.517253,0.4365164 1.104072,1.0220037 1.067399,1.0649759 1.102344,1.1152732 1.101373,1.5852007 -4.41e-4,0.213268 -0.02096,0.3224897 -0.08728,0.4646683 -0.07102,0.152252 -1.018345,1.1190387 -5.237982,5.3455975 -2.833204,2.837852 -5.2265562,5.207766 -5.3185605,5.266477 -0.1502161,0.09586 -0.2517811,0.126283 -0.557602,0.167038 -0.051113,0.0068 -0.1889921,-0.0069 -0.306397,-0.03038 z"
     id="path23" />
</svg>
