<?xml version="1.0" encoding="UTF-8" standalone="no"?>
<!-- Generator: Adobe Illustrator 15.1.0, SVG Export Plug-In . SVG Version: 6.00 Build 0)  -->

<svg
   version="1.1"
   id="Layer_1"
   x="0px"
   y="0px"
   width="72px"
   height="72px"
   viewBox="0 0 72 72"
   enable-background="new 0 0 72 72"
   xml:space="preserve"
   sodipodi:docname="club_black.svg"
   inkscape:version="1.4.3 (0d15f75042, 2025-12-25)"
   xmlns:inkscape="http://www.inkscape.org/namespaces/inkscape"
   xmlns:sodipodi="http://sodipodi.sourceforge.net/DTD/sodipodi-0.dtd"
   xmlns="http://www.w3.org/2000/svg"
   xmlns:svg="http://www.w3.org/2000/svg"><defs
   id="defs1"><inkscape:path-effect
     effect="mirror_symmetry"
     start_point="36.9,12.336927"
     end_point="36.9,65.315523"
     center_point="36.9,38.826225"
     id="path-effect1"
     is_visible="true"
     lpeversion="1.2"
     lpesatellites=""
     mode="free"
     discard_orig_path="false"
     fuse_paths="true"
     oposite_fuse="false"
     split_items="false"
     split_open="false"
     link_styles="false" /></defs><sodipodi:namedview
   id="namedview1"
   pagecolor="#ffffff"
   bordercolor="#000000"
   borderopacity="0.25"
   inkscape:showpageshadow="2"
   inkscape:pageopacity="0.0"
   inkscape:pagecheckerboard="0"
   inkscape:deskcolor="#d1d1d1"
   showguides="true"
   inkscape:zoom="8"
   inkscape:cx="49.75"
   inkscape:cy="7.375"
   inkscape:window-width="2560"
   inkscape:window-height="1382"
   inkscape:window-x="0"
   inkscape:window-y="0"
   inkscape:window-maximized="1"
   inkscape:current-layer="Layer_1" />

<path
   fill="#0a0b0b"
   d="m 36.892578,12.328125 c -11.990796,0 -15.483902,13.418217 -9.914062,19.753906 -9.788878,-2.403362 -18.0898357,6.949047 -13.958985,16.69336 3.407902,8.03894 15.657261,9.022179 21.578125,2.974609 0,0 0.262441,8.9431 -4.457031,10.724609 H 43.660156 C 38.940684,60.6931 39.203125,51.75 39.203125,51.75 c 5.920864,6.04757 18.170223,5.064331 21.578125,-2.974609 4.130851,-9.744313 -4.172059,-19.096722 -13.960938,-16.69336 5.56984,-6.335689 2.076734,-19.753906 -9.914062,-19.753906 -0.0022,0 -0.0036,-6e-6 -0.0059,0 -0.0022,-6e-6 -0.0056,0 -0.0078,0 z"
   id="path1"
   sodipodi:nodetypes="sccssscscscs"
   transform="matrix(-1.001326,0,0,1,72.949235,-0.07812252)"
   inkscape:label="path1"
   style="display:inline;fill:#404040;fill-opacity:1" /></svg>
