<?xml version="1.0" encoding="UTF-8"?>
<!-- Created with Inkscape (http://www.inkscape.org/) -->
<svg width="64" height="64" version="1.1" viewBox="0 0 16.933 16.933" xmlns="http://www.w3.org/2000/svg">
 <g transform="matrix(1.25 0 0 1.25 -2.1208 -2.1019)" fill="#333" stroke="#000">
  <path d="m6.8471 4.1977c-0.31956 0-0.59046 0.20009-0.69556 0.48214h-3.2158c-0.29798 0-0.53795 0.23997-0.53795 0.53795v6.8616c0 0.29798 0.23997 0.53795 0.53795 0.53795h11.095c0.29798 0 0.53795-0.23997 0.53795-0.53795v-6.8616c0-0.29798-0.23997-0.53795-0.53795-0.53795h-3.2489c-0.1051-0.28205-0.37601-0.48214-0.69556-0.48214zm1.6195 2.0862a2.1828 2.1828 0 0 1 2.1828 2.1828 2.1828 2.1828 0 0 1-2.1828 2.1828 2.1828 2.1828 0 0 1-2.1828-2.1828 2.1828 2.1828 0 0 1 2.1828-2.1828z" stroke-width=".052917"/>
  <circle cx="8.4667" cy="8.4667" r="1.356" stroke-width=".052917"/>
 </g>
</svg>
